# xmcd
#
# Track frame offsets: 
#        150
#        11377
#        25202
#        47262
#        59975
#        77680
#        93782
#        109445
#        127415
#        139637
#        152157
#        167212
#        180035
#        195955
#        219185
#        231990
#        244125
#        265107
#        277702
#        292807
#
# Disc length: 4180 seconds
#
# Revision: 1
# Processed by: cddbd v1.5.2PL0 Copyright (c) Steve Scherf et al.
# Submitted via: ExactAudioCopyFreeDBPlugin 1.0
#
DISCID=08105214
DTITLE=Various Artist - Top of the Stax:  Forty Greatest Hits
DYEAR=1988
DGENRE=Soul
TTITLE0=Sam and Dave - Hold On, I'm Comin'
TTITLE1=Eddie Floyd - Knock on Wood
TTITLE2=The Staple Singers - Respect Yourself
TTITLE3=Carla Thomas - B-A-B-Y
TTITLE4=Shirley Brown - Woman to Woman
TTITLE5=The Soul Children - I'll Be the Other Woman
TTITLE6=JohnnieTaylor - Cheaper to Keep Her
TTITLE7=Little Milton - That's What Love Will Make You Do
TTITLE8=William Bell - I Forgot to Be Your Lover
TTITLE9=Jean Knight - Mr. Big Stuff
TTITLE10=Rufus Thomas - (Do The) The Push and Pull, Part I
TTITLE11=Booker T. and the M.G.'s - Green Onions
TTITLE12=Mel and Tim - Starting All Over Again
TTITLE13=The Dramatics - In the Rain
TTITLE14=The Emotions - So I Can Love You
TTITLE15=Otis Redding - (Sittin' On) The Dock of the Bay
TTITLE16=The Staple Singers - I'll Take You There
TTITLE17=Johnnie Taylor - Who's Making Love
TTITLE18=Frederick Knight - I've Been Lonley for So Long
TTITLE19=Isaac Hayes - Theme from "Shaft"
EXTD=
EXTT0=
EXTT1=
EXTT2=
EXTT3=
EXTT4=
EXTT5=
EXTT6=
EXTT7=
EXTT8=
EXTT9=
EXTT10=
EXTT11=
EXTT12=
EXTT13=
EXTT14=
EXTT15=
EXTT16=
EXTT17=
EXTT18=
EXTT19=
PLAYORDER=
